<svg xmlns="http://www.w3.org/2000/svg" viewBox="0 0 2000 2000">
  <circle cx="1000" cy="1000" r="1000" fill="#26A17B"/>
  <path fill="#fff" d="M1128.13 1000.6c-7.5.5-46.25 3.13-132.5 3.13-68.75 0-117.5-2.13-135-3.13-266.25-11.87-465-58.12-465-113.12s198.75-101.25 465-113.5v180.63c17.88 1.25 67.63 4.37 136.25 4.37 82.5 0 123.75-3.62 131.25-4.37V773.98c265.62 12.25 463.75 58.37 463.75 113.37s-198.13 101.25-463.75 113.25zm0-244.87V615.98h366.25V438.73H505.62v177.25h366.26v139.75c-301.88 17.13-528.13 78.38-528.13 152.13s226.25 135 528.13 152.13v545.25h132.5V1060c301.25-17.13 527.5-78.25 527.5-152s-226.25-135-527.5-152.13z"/>
</svg>